<svg xmlns="http://www.w3.org/2000/svg" width="23.001" height="16.46" viewBox="0 0 23.001 16.46">
  <g id="youtube" transform="translate(0.5 0.5)">
    <path id="Path_86" data-name="Path 86" d="M22.54,6.42a2.78,2.78,0,0,0-1.94-2C18.88,4,12,4,12,4s-6.88,0-8.6.46a2.78,2.78,0,0,0-1.94,2A29,29,0,0,0,1,11.75a29,29,0,0,0,.46,5.33A2.78,2.78,0,0,0,3.4,19c1.72.46,8.6.46,8.6.46s6.88,0,8.6-.46a2.78,2.78,0,0,0,1.94-2A29,29,0,0,0,23,11.75a29,29,0,0,0-.46-5.33Z" transform="translate(-0.999 -4)" fill="none" stroke="#fff" stroke-linecap="round" stroke-linejoin="round" stroke-width="1"/>
    <path id="Path_87" data-name="Path 87" d="M9.75,15.02l5.75-3.27L9.75,8.48Z" transform="translate(-0.999 -4)" fill="none" stroke="#fff" stroke-linecap="round" stroke-linejoin="round" stroke-width="1"/>
  </g>
</svg>
